<?xml version="1.0" encoding="UTF-8"?>
<svg version="1.1" xmlns="http://www.w3.org/2000/svg" width="200" height="94">
<path d="M0 0 C5.77382474 6.28203426 7.81877834 12.34736167 7.66015625 20.73828125 C7.65435547 21.48198975 7.64855469 22.22569824 7.64257812 22.99194336 C7.51013565 28.6041933 6.54488365 33.1847393 4.28515625 38.36328125 C4.94515625 38.87890625 5.60515625 39.39453125 6.28515625 39.92578125 C8.28515625 42.36328125 8.28515625 42.36328125 8.72265625 45.98828125 C8.57828125 47.10203125 8.43390625 48.21578125 8.28515625 49.36328125 C4.79391608 51.6907747 3.39293374 51.86627441 -0.71484375 51.36328125 C-2.04817708 50.02994792 -3.38151042 48.69661458 -4.71484375 47.36328125 C-7.29817708 47.44661458 -7.29817708 47.44661458 -9.71484375 48.36328125 C-16.78928972 50.72142991 -26.92431906 50.61251091 -33.83984375 47.67578125 C-42.073183 43.15214049 -46.51619353 37.33495061 -49.33203125 28.40625 C-51.11914452 18.86890063 -49.57312704 10.53653452 -44.46484375 2.36328125 C-39.78613369 -3.80410928 -33.22960054 -6.78637436 -25.83984375 -8.57421875 C-15.98061081 -9.23283148 -7.16101814 -6.83477585 0 0 Z M-33.96484375 9.73828125 C-37.41024486 14.90638292 -38.12857202 19.13603331 -37.25390625 25.1875 C-35.88351223 30.71872802 -32.26902853 34.2103841 -27.71484375 37.36328125 C-23.36233868 38.81411627 -19.1337062 39.21671054 -14.77734375 37.6796875 C-9.48547486 34.93110904 -6.60790347 31.04246041 -4.71484375 25.36328125 C-3.93144246 19.06249658 -4.40296757 14.2738326 -8.171875 9.05859375 C-11.93905737 4.91946173 -15.68446213 3.16407488 -21.27734375 2.86328125 C-26.93716563 3.14242212 -30.13751548 5.69832363 -33.96484375 9.73828125 Z " fill="#003242" transform="translate(50.71484375,8.63671875)"/>
<path d="M0 0 C0.05057791 7.65377999 0.08568184 15.30751713 0.10986328 22.96142578 C0.11994064 25.56691091 0.1336027 28.17238469 0.15087891 30.77783203 C0.17505102 34.51597899 0.1864656 38.25397685 0.1953125 41.9921875 C0.20563507 43.16304901 0.21595764 44.33391052 0.22659302 45.54025269 C0.22681961 47.161707 0.22681961 47.161707 0.22705078 48.81591797 C0.231492 49.77078094 0.23593323 50.72564392 0.24050903 51.70944214 C0 54 0 54 -2 56 C-4.34260643 55.7397104 -6.67724823 55.40047444 -9 55 C-12.7763932 54.7018576 -12.7763932 54.7018576 -15 56 C-20.55531248 56.5072965 -25.41830236 56.76260422 -30.5 54.3125 C-35.52558623 49.66383274 -38.56439413 45.61589382 -39.22265625 38.640625 C-39.46925139 31.56441673 -38.10325389 27.19114383 -34.1875 21.25 C-30.15999756 17.10742606 -26.56410369 15.82136126 -20.875 15.6875 C-17.34503831 15.70399515 -15.06305348 16.22851054 -12 18 C-11.90912109 16.42798828 -11.90912109 16.42798828 -11.81640625 14.82421875 C-11.73198262 13.44529952 -11.64733553 12.06639395 -11.5625 10.6875 C-11.52318359 9.99720703 -11.48386719 9.30691406 -11.44335938 8.59570312 C-11.25072585 5.52838465 -10.97677283 2.93031848 -10 0 C-6.35500358 -2.83499721 -4.05859327 -1.48241368 0 0 Z M-24.9375 29 C-27.24545126 32.35702001 -27.69608338 34.09011871 -27.41796875 38.06640625 C-26.72601984 41.26747832 -25.44754681 42.87449882 -23 45 C-19.91164227 45.96511179 -17.94685427 46.24347681 -14.8125 45.4375 C-12.11782205 43.30034163 -11.17355457 41.21183355 -10 38 C-10.0749041 34.32969931 -10.82000512 32.31845247 -12.625 29.125 C-14.9113806 26.70673372 -14.9113806 26.70673372 -18.4375 26.375 C-22.08508741 26.76308612 -22.08508741 26.76308612 -24.9375 29 Z " fill="#003242" transform="translate(200,2)"/>
<path d="M0 0 C1.6796875 1.50390625 1.6796875 1.50390625 3.5 3.5 C12.73876486 13.40747546 25.55383249 18.6436185 39 19.375 C55.16469359 18.55825759 66.8440948 11.1559052 78 0 C81.05760057 -0.26587831 83.20840805 -0.43409881 85.9375 1.0625 C87 3 87 3 87.125 6.25 C84.23388951 15.88703496 73.43926867 21.41868272 65 26 C50.47260582 32.52213884 33.31391182 33.40320279 18.171875 28.3203125 C7.77023759 23.99056688 -2.64478347 17.53282479 -9 8 C-8.75 4.375 -8.75 4.375 -8 1 C-4.93772154 -0.53113923 -3.42801806 -0.57133634 0 0 Z " fill="#FCB601" transform="translate(71,63)"/>
<path d="M0 0 C2.13308762 3.19963143 2.2472845 4.06735659 2.2734375 7.74609375 C2.2940625 8.66583984 2.3146875 9.58558594 2.3359375 10.53320312 C2.36192543 12.46540602 2.38018692 14.39772867 2.390625 16.33007812 C2.45683211 21.83909049 2.45683211 21.83909049 4.84375 26.6640625 C7.02015669 28.28281705 7.02015669 28.28281705 10.125 27.9375 C13.29174932 27.23305313 13.29174932 27.23305313 15 24 C15.30147288 21.74434434 15.30147288 21.74434434 15.2734375 19.25390625 C15.2940625 18.33416016 15.3146875 17.41441406 15.3359375 16.46679688 C15.36192543 14.53459398 15.38018692 12.60227133 15.390625 10.66992188 C15.56815246 3.62306817 15.56815246 3.62306817 17.84375 0.33984375 C20 -1 20 -1 23.125 -1 C26 0 26 0 27.16308594 1.63671875 C28.2742886 4.77453723 28.25942279 7.48456899 28.265625 10.8125 C28.26849518 11.78860229 28.26849518 11.78860229 28.27142334 12.78442383 C28.27278037 14.15609119 28.26911765 15.5277716 28.26074219 16.89941406 C28.25003512 18.99313336 28.26065309 21.08599474 28.2734375 23.1796875 C28.27211582 24.51562688 28.26955325 25.85156574 28.265625 27.1875 C28.26336914 28.39792969 28.26111328 29.60835937 28.25878906 30.85546875 C28.01154553 33.8597109 27.7731948 35.58161167 26 38 C21.39986315 39.19262807 19.11676419 39.12936079 15 37 C14.42507812 37.30421875 13.85015625 37.6084375 13.2578125 37.921875 C10.40409578 39.28454942 8.21525877 39.30057279 5.0625 39.3125 C4.04285156 39.32925781 3.02320312 39.34601562 1.97265625 39.36328125 C-1.41795673 38.9489225 -3.25823104 38.00230763 -6 36 C-10.72012782 29.59411224 -10.18253365 22.56085379 -10.1875 14.9375 C-10.19974609 13.94427734 -10.21199219 12.95105469 -10.22460938 11.92773438 C-10.22654297 10.97060547 -10.22847656 10.01347656 -10.23046875 9.02734375 C-10.23457764 8.15843506 -10.23868652 7.28952637 -10.24291992 6.39428711 C-9.97706875 3.77398316 -9.465595 2.18420933 -8 0 C-4.67212881 -1.1092904 -3.3006216 -1.01557588 0 0 Z " fill="#003242" transform="translate(72,19)"/>
<path d="M0 0 C1.98606317 0.52015666 1.98606317 0.52015666 3.75 -0.6484375 C7.63576046 -2.49417372 11.72922238 -2.12543458 15.9375 -1.6875 C20.11895284 0.03962182 22.36225328 2.63357611 24.9375 6.3125 C26.65716673 11.47150019 26.1643226 16.91216644 26.1875 22.3125 C26.208125 23.51390625 26.22875 24.7153125 26.25 25.953125 C26.25773437 27.67789063 26.25773437 27.67789063 26.265625 29.4375 C26.27964355 31.01917969 26.27964355 31.01917969 26.29394531 32.6328125 C25.9375 35.3125 25.9375 35.3125 24.64355469 37.1953125 C22.9375 38.3125 22.9375 38.3125 19.3125 38.0625 C15.9375 37.3125 15.9375 37.3125 14.9375 36.3125 C14.804907 34.88400161 14.7342531 33.44962385 14.69140625 32.015625 C14.65853516 31.1390625 14.62566406 30.2625 14.59179688 29.359375 C14.53111534 27.51052482 14.4737653 25.66156196 14.41992188 23.8125 C14.36597732 16.50260914 14.36597732 16.50260914 10.9375 10.3125 C7.52149407 9.89557147 7.52149407 9.89557147 3.9375 10.3125 C1.12428752 13.1479178 0.56441053 15.26376809 0.53125 19.19140625 C0.50933594 20.11244141 0.48742187 21.03347656 0.46484375 21.98242188 C0.44657766 23.91471319 0.42834864 25.84700486 0.41015625 27.77929688 C0.38824219 28.69904297 0.36632812 29.61878906 0.34375 30.56640625 C0.33311523 31.82432983 0.33311523 31.82432983 0.32226562 33.10766602 C-0.0625 35.3125 -0.0625 35.3125 -1.36132812 37.12084961 C-3.0625 38.3125 -3.0625 38.3125 -6.6875 38.125 C-7.80125 37.856875 -8.915 37.58875 -10.0625 37.3125 C-11.57913882 34.27922236 -11.26680571 31.11501401 -11.30078125 27.78515625 C-11.308853 27.04043564 -11.31692474 26.29571503 -11.32524109 25.52842712 C-11.33907551 23.95232468 -11.34980055 22.37619236 -11.35766602 20.80004883 C-11.37490987 18.38760962 -11.41880181 15.97653029 -11.46289062 13.56445312 C-11.47301504 12.03386425 -11.48153193 10.50326373 -11.48828125 8.97265625 C-11.50578934 8.25070572 -11.52329742 7.52875519 -11.54133606 6.78492737 C-11.52704637 3.49271516 -11.49245 1.77095993 -9.19213867 -0.68188477 C-5.82205073 -2.27324006 -3.39050966 -1.13016989 0 0 Z " fill="#003242" transform="translate(132.0625,19.6875)"/>
<path d="M0 0 C2.875 0.9375 2.875 0.9375 4.875 3.9375 C5.26388119 8.4889655 5.20414011 13.04990028 5.19067383 17.6159668 C5.187516 19.86361263 5.21097039 22.10993896 5.23632812 24.35742188 C5.23860147 25.78906084 5.23930445 27.22070334 5.23828125 28.65234375 C5.24126221 29.95292725 5.24424316 31.25351074 5.24731445 32.59350586 C4.85721343 36.09725259 4.4136805 37.53433493 1.875 39.9375 C-1.125 40.4375 -1.125 40.4375 -4.125 39.9375 C-6.64428515 37.5430493 -7.10669916 36.0882414 -7.52905273 32.609375 C-7.53880127 31.31515625 -7.5485498 30.0209375 -7.55859375 28.6875 C-7.5638356 27.99237305 -7.56907745 27.29724609 -7.57447815 26.58105469 C-7.58088529 25.11524793 -7.57957822 23.64938967 -7.57104492 22.18359375 C-7.56252617 19.94438013 -7.59132168 17.70771228 -7.62304688 15.46875 C-7.62465891 14.04166743 -7.62408131 12.61458035 -7.62109375 11.1875 C-7.62387329 9.24617188 -7.62387329 9.24617188 -7.62670898 7.265625 C-7.125 3.9375 -7.125 3.9375 -5.28930664 1.48046875 C-3.125 -0.0625 -3.125 -0.0625 0 0 Z " fill="#003242" transform="translate(111.125,18.0625)"/>
<path d="M0 0 C2.34051463 1.60910381 4.17520298 2.87371478 6 5 C6.5625 8.6875 6.5625 8.6875 6 12 C2.47427193 14.35048538 1.14986355 14.66397817 -3 14 C-5.04950728 12.16398307 -6.39196015 10.27017391 -8 8 C-5.36 5.36 -2.72 2.72 0 0 Z " fill="#0CBEE4" transform="translate(53,46)"/>
<path d="M0 0 C2 2 2 2 2.25 4.9375 C2 8 2 8 0 11 C-1.875 11.3984375 -1.875 11.3984375 -4 11.375 C-4.70125 11.38273438 -5.4025 11.39046875 -6.125 11.3984375 C-8 11 -8 11 -10 8 C-10.375 5 -10.375 5 -10 2 C-6.94783427 -1.63912068 -4.35383535 -1.23043173 0 0 Z " fill="#FB542A" transform="translate(114,3)"/>
<path d="M0 0 C0.99 0 1.98 0 3 0 C3.391875 0.9075 3.78375 1.815 4.1875 2.75 C6.78498008 7.40755049 10.17772523 9.85676677 15 12 C15 12.99 15 13.98 15 15 C11.77410741 15.5645312 9.69610409 15.43313144 6.890625 13.6875 C2.20486907 9.85680902 -0.0224287 6.98762422 -1 1 C-0.67 0.67 -0.34 0.34 0 0 Z " fill="#003242" transform="translate(16,30)"/>
</svg>
