<?xml version="1.0" standalone="no"?>
<!DOCTYPE svg PUBLIC "-//W3C//DTD SVG 20010904//EN"
 "http://www.w3.org/TR/2001/REC-SVG-20010904/DTD/svg10.dtd">
<svg version="1.0" xmlns="http://www.w3.org/2000/svg"
 width="200.000000pt" height="94.000000pt" viewBox="0 0 200.000000 94.000000"
 preserveAspectRatio="xMidYMid meet">

<g transform="translate(0.000000,94.000000) scale(0.100000,-0.100000)"
fill="#000000" stroke="none">
<path d="M220 921 c-128 -40 -199 -134 -200 -266 0 -89 13 -134 53 -186 120
-157 384 -138 470 34 81 159 16 349 -139 407 -55 20 -137 25 -184 11z m160
-116 c64 -33 99 -125 80 -207 -30 -122 -167 -173 -264 -97 -77 61 -89 196 -23
268 53 58 137 72 207 36z"/>
<path d="M163 610 c10 -46 33 -75 82 -101 35 -18 47 -21 56 -12 10 10 5 16
-22 27 -40 17 -74 50 -88 89 -14 37 -35 36 -28 -3z"/>
<path d="M1916 914 c-12 -12 -16 -37 -16 -105 0 -49 -2 -89 -5 -89 -3 0 -17 8
-32 17 -33 22 -108 22 -150 0 -18 -9 -45 -34 -60 -54 -26 -33 -28 -44 -28
-123 0 -76 3 -91 25 -123 47 -70 141 -95 212 -57 31 17 38 17 48 5 15 -18 61
-20 78 -3 17 17 17 519 0 536 -17 17 -54 15 -72 -4z m-45 -283 c80 -80 -17
-220 -108 -156 -13 9 -28 33 -34 54 -9 32 -8 44 5 73 30 63 90 75 137 29z"/>
<path d="M1068 899 c-27 -16 -23 -65 7 -85 23 -15 27 -15 50 0 61 40 6 122
-57 85z"/>
<path d="M1380 746 c-19 -7 -42 -16 -51 -20 -9 -4 -21 0 -29 9 -17 20 -53 19
-73 -3 -14 -16 -17 -43 -17 -171 0 -86 5 -161 10 -172 15 -26 75 -26 90 0 5
11 10 65 10 121 0 94 2 103 25 125 13 14 36 25 50 25 14 0 37 -11 50 -25 23
-23 25 -31 25 -133 0 -116 6 -132 50 -132 45 0 50 14 50 153 0 143 -12 187
-59 212 -42 21 -93 26 -131 11z"/>
<path d="M646 734 c-25 -24 -23 -257 2 -303 36 -67 122 -89 197 -51 34 18 41
18 55 5 20 -18 61 -20 78 -3 8 8 12 61 12 174 0 175 -5 194 -54 194 -39 0 -46
-18 -46 -122 0 -112 -14 -154 -57 -164 -36 -9 -75 6 -90 36 -8 15 -13 65 -13
126 0 64 -4 104 -12 112 -17 17 -54 15 -72 -4z"/>
<path d="M1062 738 c-17 -17 -17 -339 0 -356 15 -15 61 -15 76 0 17 17 17 339
0 356 -15 15 -61 15 -76 0z"/>
</g>
</svg>
